<svg width="383" height="231" viewBox="0 0 383 231" fill="none" xmlns="http://www.w3.org/2000/svg">
<path d="M327.342 205L337.085 219.055L348.209 212.722L355.51 222.99L369.188 217.202L378.094 229.678" stroke="#E7E7E7" stroke-width="4"/>
<path d="M19.1041 13.5033C28.3871 9.6734 39.3986 12.6845 43.9113 19.6308C48.4239 26.5774 45.1523 35.4813 35.8693 39.3113C26.5862 43.1413 15.5738 40.1308 11.0612 33.1841C6.54893 26.2375 9.82116 17.3333 19.1041 13.5033Z" stroke="white" stroke-width="3.64706"/>
<path d="M37.7787 22.8072C47.5411 18.7795 59.4157 21.8612 64.3721 29.4906C69.3285 37.1203 65.631 46.6265 55.8685 50.6544C46.106 54.6822 34.2306 51.601 29.2742 43.9713C24.3182 36.3416 28.0163 26.835 37.7787 22.8072Z" stroke="white" stroke-width="1.21569"/>
</svg>
