<svg width="81" height="69" viewBox="0 0 81 69" fill="none" xmlns="http://www.w3.org/2000/svg">
<path d="M40.4998 67.2711H3.893C2.50116 67.2711 1.37286 66.1388 1.37286 64.7421V4.26044C1.37286 2.66567 2.66117 1.3728 4.25032 1.3728H37.6225C39.2117 1.3728 40.5 2.66567 40.5 4.26044V18.3523L36.7016 22.7981L40.5 29.0502V67.2711H40.4998Z" fill="#60B7FF"/>
<path d="M40.5 4.25923V67.2711H35.8091V4.25923C35.8091 2.66443 34.5284 1.3728 32.9492 1.3728H37.6401C39.2194 1.3728 40.5 2.66443 40.5 4.25923Z" fill="#26A6FE"/>
<path d="M70.7234 52.8559H58.3274L56.994 38.8969C56.7597 36.4445 58.6716 34.322 61.1146 34.322H67.9362C70.3793 34.322 72.291 36.4445 72.0568 38.8969L70.7234 52.8559Z" fill="#FEA95C"/>
<path d="M72.0567 38.8968L70.7184 52.8559H65.95L67.2883 38.8968C67.5236 36.4441 65.6051 34.322 63.1526 34.322H67.921C70.3735 34.322 72.292 36.4441 72.0567 38.8968Z" fill="#FE9738"/>
<path d="M64.5254 34.3221H61.2276C61.2276 34.3221 57.5896 33.6016 59.6835 25.6205C59.8969 24.8072 60.8254 24.4481 61.4923 24.9274C62.7889 25.8593 64.5254 27.7861 64.5254 31.4215V34.3221Z" fill="#70D162"/>
<path d="M64.5254 34.3221H68.2355C68.2355 34.3221 72.3282 33.6016 69.9726 25.6205C69.7325 24.8072 68.6879 24.4481 67.9377 24.9274C66.479 25.8593 64.5254 27.7861 64.5254 31.4215V34.3221Z" fill="#58C945"/>
<path d="M50.1301 52.8559H37.7341L36.4008 38.8969C36.1666 36.4445 38.0783 34.322 40.5214 34.322H47.343C49.7861 34.322 51.6978 36.4445 51.4636 38.8969L50.1301 52.8559Z" fill="#FEA95C"/>
<path d="M51.4635 38.8968L50.1252 52.8559H45.3568L46.6951 38.8968C46.9304 36.4441 45.0119 34.322 42.5593 34.322H47.3277C49.7803 34.322 51.6988 36.4441 51.4635 38.8968Z" fill="#FE9738"/>
<path d="M43.9322 34.3221H40.6344C40.6344 34.3221 36.9964 33.6016 39.0903 25.6205C39.3037 24.8072 40.2322 24.4481 40.8991 24.9274C42.1957 25.8593 43.9322 27.7861 43.9322 31.4215V34.3221Z" fill="#70D162"/>
<path d="M43.9322 34.3221H47.23C47.23 34.3221 50.868 33.6016 48.7741 25.6205C48.5607 24.8072 47.6322 24.4481 46.9653 24.9274C45.6687 25.8593 43.9322 27.7861 43.9322 31.4215V34.3221Z" fill="#58C945"/>
<path d="M76.8831 67.2712H28.8305V55.7955C28.8305 54.1721 30.1514 52.856 31.781 52.856H76.6766C78.306 52.856 79.6271 54.172 79.6271 55.7955V64.5375C79.627 66.0472 78.3986 67.2712 76.8831 67.2712Z" fill="#D77F4A"/>
<path d="M79.6271 55.7962V64.5383C79.6271 66.0477 78.4198 67.2712 76.9304 67.2712H72.2808C73.7702 67.2712 74.9776 66.0477 74.9776 64.5383V55.7962C74.9776 54.1721 73.6788 52.856 72.0763 52.856H76.7258C78.3283 52.856 79.6271 54.1721 79.6271 55.7962Z" fill="#C86D36"/>
<path fill-rule="evenodd" clip-rule="evenodd" d="M31.6202 53.8936C30.6366 53.8936 29.8393 54.7007 29.8393 55.6962V66.2332H59.5207C60.1783 66.2332 60.7115 66.7729 60.7115 67.4386C60.7115 68.1043 60.1783 68.6439 59.5207 68.6439H28.6485C27.9908 68.6439 27.4576 68.1043 27.4576 67.4386V55.6962C27.4576 53.3694 29.3212 51.4829 31.6202 51.4829H76.8375C79.1362 51.4829 81 53.3691 81 55.6962V64.6414C81 66.8518 79.2297 68.6439 77.0456 68.6439H65.3623C64.7046 68.6439 64.1714 68.1043 64.1714 67.4386C64.1714 66.7729 64.7046 66.2332 65.3623 66.2332H77.0456C77.9143 66.2332 78.6183 65.5205 78.6183 64.6414V55.6962C78.6183 54.7006 77.821 53.8936 76.8375 53.8936H31.6202Z" fill="black"/>
<path fill-rule="evenodd" clip-rule="evenodd" d="M61.5195 35.3844C59.8087 35.3844 58.47 36.9235 58.634 38.7016L59.8417 51.7937H69.8955L71.1033 38.7017C71.1033 38.7017 71.1033 38.7017 71.1033 38.7017C71.2672 36.9235 69.9285 35.3844 68.2178 35.3844H61.5195ZM56.3127 38.9351C56.0166 35.7263 58.4325 32.9492 61.5195 32.9492H68.2178C71.3049 32.9492 73.7205 35.7264 73.4246 38.9351L72.1152 53.128C72.0576 53.7524 71.5552 54.2289 70.9546 54.2289H58.7826C58.1819 54.2289 57.6795 53.7524 57.622 53.128L56.3127 38.9351C56.3127 38.9352 56.3127 38.9351 56.3127 38.9351Z" fill="black"/>
<path fill-rule="evenodd" clip-rule="evenodd" d="M60.7379 26.3675C60.7373 26.3686 60.7357 26.3714 60.7341 26.3771C59.6678 30.1138 60.1445 31.8708 60.6027 32.6368C60.8317 33.0196 61.0871 33.2119 61.2535 33.3072C61.3049 33.3367 61.3496 33.3579 61.3846 33.3727H63.4694V31.713C63.4694 28.6409 61.9061 27.0933 60.7851 26.3526L60.7851 26.3526C60.7827 26.351 60.7811 26.3502 60.7803 26.3498C60.7795 26.3494 60.779 26.3492 60.7789 26.3492L60.7789 26.3491M61.1956 34.5338C60.9684 35.6744 60.9672 35.6741 60.9659 35.6739L60.9632 35.6734L60.9577 35.6724C60.9538 35.6716 60.9497 35.6708 60.9454 35.67C60.9367 35.6682 60.927 35.6662 60.9163 35.6639C60.895 35.6593 60.8697 35.6535 60.8409 35.6461C60.7834 35.6315 60.7113 35.6109 60.6275 35.5824C60.4603 35.5256 60.2445 35.4364 60.0045 35.2988C59.5186 35.0203 58.9504 34.5523 58.4943 33.7897C57.5822 32.265 57.2423 29.7909 58.3908 25.7659L58.3908 25.7659C58.8338 24.2137 60.7619 23.5144 62.1661 24.4423M61.1956 34.5338L60.9684 35.6744C61.0433 35.688 61.1194 35.6949 61.1956 35.6949H64.6839C65.3546 35.6949 65.8983 35.175 65.8983 34.5338V31.713C65.8983 27.7143 63.7882 25.5142 62.1662 24.4424" fill="black"/>
<path fill-rule="evenodd" clip-rule="evenodd" d="M67.2602 24.4423C68.5473 23.5144 70.3148 24.2137 70.7208 25.7659L70.7208 25.7659C71.7737 29.7909 71.4621 32.265 70.626 33.7897C70.2079 34.5523 69.6871 35.0203 69.2417 35.2988C69.0217 35.4364 68.8238 35.5256 68.6705 35.5824C68.5938 35.6109 68.5277 35.6315 68.4749 35.6461C68.4485 35.6535 68.4254 35.6593 68.4058 35.6639C68.396 35.6662 68.3871 35.6682 68.3792 35.67C68.3768 35.6705 68.3745 35.671 68.3722 35.6715C68.3708 35.6718 68.3693 35.6721 68.3679 35.6724L68.3628 35.6734L68.3604 35.6739C68.3592 35.6741 68.358 35.6744 68.1498 34.5338L68.358 35.6744C68.2894 35.688 68.2196 35.6949 68.1498 35.6949H64.9522C64.3374 35.6949 63.839 35.175 63.839 34.5338V31.713C63.839 27.7143 65.7732 25.5142 67.2601 24.4424M67.9765 33.3727C68.0086 33.3579 68.0496 33.3367 68.0967 33.3072C68.2492 33.2119 68.4834 33.0196 68.6933 32.6368C69.1133 31.8708 69.5503 30.1137 68.5729 26.3771C68.5714 26.3714 68.5699 26.3686 68.5693 26.3675C68.5687 26.3662 68.5678 26.365 68.5666 26.3636C68.5637 26.3604 68.5577 26.3556 68.5488 26.3521C68.54 26.3487 68.5339 26.3489 68.5323 26.3491L68.5318 26.3491L68.5318 26.3491L68.5318 26.3491L68.5317 26.3492C68.5317 26.3492 68.5313 26.3494 68.5305 26.3498C68.5297 26.3502 68.5283 26.351 68.5261 26.3526L68.5261 26.3526C67.4985 27.0933 66.0655 28.6409 66.0655 31.713V33.3727H67.9765Z" fill="black"/>
<path fill-rule="evenodd" clip-rule="evenodd" d="M56.2881 41.5297C56.2881 40.961 56.8264 40.5 57.4903 40.5H61.264C61.9279 40.5 62.4661 40.961 62.4661 41.5297C62.4661 42.0983 61.9279 42.5593 61.264 42.5593H57.4903C56.8264 42.5593 56.2881 42.0983 56.2881 41.5297Z" fill="black"/>
<path fill-rule="evenodd" clip-rule="evenodd" d="M62.4661 47.0214C62.4661 46.4527 63.0121 45.9917 63.6856 45.9917H71.5432C72.2167 45.9917 72.7627 46.4527 72.7627 47.0214C72.7627 47.59 72.2167 48.051 71.5432 48.051H63.6856C63.0121 48.051 62.4661 47.59 62.4661 47.0214Z" fill="black"/>
<path fill-rule="evenodd" clip-rule="evenodd" d="M66.5847 41.5297C66.5847 40.961 67.1664 40.5 67.884 40.5H72.1499C72.8675 40.5 73.4492 40.961 73.4492 41.5297C73.4492 42.0983 72.8675 42.5593 72.1499 42.5593H67.884C67.1664 42.5593 66.5847 42.0983 66.5847 41.5297Z" fill="black"/>
<path fill-rule="evenodd" clip-rule="evenodd" d="M37.4482 38.7017C37.4482 38.7017 37.4482 38.7017 37.4482 38.7017L38.7042 51.7937H49.1601L50.4162 38.7017C50.4162 38.7017 50.4162 38.7017 50.4162 38.7017C50.5867 36.9235 49.1945 35.3844 47.4153 35.3844H40.4491C38.6699 35.3844 37.2777 36.9235 37.4482 38.7017ZM35.034 38.9351C34.7263 35.7264 37.2385 32.9492 40.4491 32.9492H47.4153C50.6259 32.9492 53.1381 35.7264 52.8304 38.9351L51.4686 53.128C51.4087 53.7524 50.8863 54.2289 50.2616 54.2289H37.6027C36.978 54.2289 36.4555 53.7524 36.3956 53.128L35.034 38.9351Z" fill="black"/>
<path fill-rule="evenodd" clip-rule="evenodd" d="M40.1447 26.3675C40.1441 26.3686 40.1425 26.3714 40.1409 26.3771C39.0746 30.1138 39.5513 31.8708 40.0095 32.6368C40.2385 33.0196 40.4939 33.2119 40.6603 33.3072C40.7117 33.3367 40.7564 33.3579 40.7914 33.3727H42.8762V31.713C42.8762 28.6409 41.3129 27.0933 40.1919 26.3526L40.1919 26.3526C40.1895 26.351 40.1879 26.3502 40.1871 26.3498C40.1863 26.3494 40.1858 26.3492 40.1857 26.3492L40.1857 26.3491M40.6024 34.5338C40.3752 35.6744 40.374 35.6741 40.3727 35.6739L40.37 35.6734L40.3645 35.6724C40.3606 35.6716 40.3565 35.6708 40.3522 35.67C40.3435 35.6682 40.3338 35.6662 40.3231 35.6639C40.3018 35.6593 40.2765 35.6535 40.2477 35.6461C40.1902 35.6315 40.1181 35.6109 40.0343 35.5824C39.8671 35.5256 39.6513 35.4364 39.4113 35.2988C38.9254 35.0203 38.3572 34.5523 37.9011 33.7897C36.989 32.265 36.6491 29.7909 37.7976 25.7659L37.7976 25.7659C38.2406 24.2137 40.1687 23.5144 41.5729 24.4423M40.6024 34.5338L40.3752 35.6744C40.4501 35.688 40.5262 35.6949 40.6024 35.6949H44.0907C44.7614 35.6949 45.3051 35.175 45.3051 34.5338V31.713C45.3051 27.7143 43.195 25.5142 41.573 24.4424" fill="black"/>
<path fill-rule="evenodd" clip-rule="evenodd" d="M46.2915 24.4423C47.6957 23.5144 49.6238 24.2137 50.0668 25.7659L50.0668 25.7659C51.2154 29.7909 50.8754 32.265 49.9634 33.7897C49.5072 34.5523 48.9391 35.0203 48.4532 35.2988C48.2132 35.4364 47.9973 35.5256 47.8301 35.5824C47.7463 35.6109 47.6743 35.6315 47.6167 35.6461C47.5879 35.6535 47.5627 35.6593 47.5413 35.6639C47.5307 35.6662 47.521 35.6682 47.5123 35.67C47.5096 35.6705 47.5071 35.671 47.5047 35.6715C47.5031 35.6718 47.5015 35.6721 47.5 35.6724L47.4944 35.6734L47.4917 35.6739C47.4905 35.6741 47.4892 35.6744 47.262 34.5338L47.4892 35.6744C47.4143 35.688 47.3382 35.6949 47.262 35.6949H43.7738C43.1031 35.6949 42.5593 35.175 42.5593 34.5338V31.713C42.5593 27.7143 44.6694 25.5142 46.2915 24.4424M47.073 33.3727C47.108 33.3579 47.1528 33.3367 47.2041 33.3072C47.3705 33.2119 47.6259 33.0196 47.8549 32.6368C48.3132 31.8708 48.7898 30.1137 47.7236 26.3771C47.7219 26.3714 47.7204 26.3686 47.7197 26.3675C47.719 26.3662 47.7181 26.365 47.7167 26.3636C47.7135 26.3604 47.707 26.3556 47.6973 26.3521C47.6877 26.3487 47.6811 26.3489 47.6793 26.3491L47.6788 26.3491L47.6788 26.3491L47.6788 26.3491L47.6787 26.3492C47.6786 26.3492 47.6782 26.3494 47.6773 26.3498C47.6765 26.3502 47.6749 26.351 47.6726 26.3526L47.6725 26.3526C46.5516 27.0933 44.9882 28.6409 44.9882 31.713V33.3727H47.073Z" fill="black"/>
<path fill-rule="evenodd" clip-rule="evenodd" d="M35.6949 41.5297C35.6949 40.961 36.2289 40.5 36.8877 40.5H42.7394C43.3982 40.5 43.9322 40.961 43.9322 41.5297C43.9322 42.0983 43.3982 42.5593 42.7394 42.5593H36.8877C36.2289 42.5593 35.6949 42.0983 35.6949 41.5297Z" fill="black"/>
<path fill-rule="evenodd" clip-rule="evenodd" d="M41.8729 47.0214C41.8729 46.4527 42.4134 45.9917 43.0803 45.9917H45.4705C46.1374 45.9917 46.6779 46.4527 46.6779 47.0214C46.6779 47.59 46.1374 48.051 45.4705 48.051H43.0803C42.4134 48.051 41.8729 47.59 41.8729 47.0214Z" fill="black"/>
<path fill-rule="evenodd" clip-rule="evenodd" d="M47.3644 41.5297C47.3644 40.961 47.9068 40.5 48.5758 40.5H50.9581C51.6271 40.5 52.1695 40.961 52.1695 41.5297C52.1695 42.0983 51.6271 42.5593 50.9581 42.5593H48.5758C47.9068 42.5593 47.3644 42.0983 47.3644 41.5297Z" fill="black"/>
<path fill-rule="evenodd" clip-rule="evenodd" d="M4.09523 2.38156C3.1491 2.38156 2.38206 3.14844 2.38206 4.09437V64.9103C2.38206 65.6571 2.9876 66.2625 3.73459 66.2625H28.9477C29.6055 66.2625 30.1387 66.7956 30.1387 67.4533C30.1387 68.1109 29.6055 68.6441 28.9477 68.6441H3.73459C1.67202 68.6441 0 66.9724 0 64.9103V4.09437C0 1.83314 1.83353 0 4.09523 0H37.7777C40.0394 0 41.8729 1.83314 41.8729 4.09437V19.188C41.8729 19.8457 41.3396 20.3788 40.6819 20.3788C40.0241 20.3788 39.4908 19.8457 39.4908 19.188V4.09437C39.4908 3.14844 38.7238 2.38156 37.7777 2.38156H4.09523Z" fill="black"/>
<path fill-rule="evenodd" clip-rule="evenodd" d="M30.5466 11.6694C31.1153 11.6694 31.5763 12.1927 31.5763 12.8382V18.0515C31.5763 18.697 31.1153 19.2203 30.5466 19.2203C29.9779 19.2203 29.5169 18.697 29.5169 18.0515V12.8382C29.5169 12.1927 29.9779 11.6694 30.5466 11.6694Z" fill="black"/>
<path fill-rule="evenodd" clip-rule="evenodd" d="M20.9364 11.6694C21.5051 11.6694 21.9661 12.1927 21.9661 12.8382V18.0515C21.9661 18.697 21.5051 19.2203 20.9364 19.2203C20.3678 19.2203 19.9068 18.697 19.9068 18.0515V12.8382C19.9068 12.1927 20.3678 11.6694 20.9364 11.6694Z" fill="black"/>
<path fill-rule="evenodd" clip-rule="evenodd" d="M11.3263 11.6694C11.8949 11.6694 12.3559 12.1927 12.3559 12.8382V18.0515C12.3559 18.697 11.8949 19.2203 11.3263 19.2203C10.7576 19.2203 10.2966 18.697 10.2966 18.0515V12.8382C10.2966 12.1927 10.7576 11.6694 11.3263 11.6694Z" fill="black"/>
<path fill-rule="evenodd" clip-rule="evenodd" d="M30.5466 25.3984C31.1153 25.3984 31.5763 25.9217 31.5763 26.5673V31.7805C31.5763 32.426 31.1153 32.9493 30.5466 32.9493C29.9779 32.9493 29.5169 32.426 29.5169 31.7805V26.5673C29.5169 25.9217 29.9779 25.3984 30.5466 25.3984Z" fill="black"/>
<path fill-rule="evenodd" clip-rule="evenodd" d="M20.9364 25.3984C21.5051 25.3984 21.9661 25.9217 21.9661 26.5673V31.7805C21.9661 32.426 21.5051 32.9493 20.9364 32.9493C20.3678 32.9493 19.9068 32.426 19.9068 31.7805V26.5673C19.9068 25.9217 20.3678 25.3984 20.9364 25.3984Z" fill="black"/>
<path fill-rule="evenodd" clip-rule="evenodd" d="M11.3263 25.3984C11.8949 25.3984 12.3559 25.9217 12.3559 26.5673V31.7805C12.3559 32.426 11.8949 32.9493 11.3263 32.9493C10.7576 32.9493 10.2966 32.426 10.2966 31.7805V26.5673C10.2966 25.9217 10.7576 25.3984 11.3263 25.3984Z" fill="black"/>
<path fill-rule="evenodd" clip-rule="evenodd" d="M30.5466 39.1272C31.1153 39.1272 31.5763 39.6505 31.5763 40.296V45.5092C31.5763 46.1547 31.1153 46.678 30.5466 46.678C29.9779 46.678 29.5169 46.1547 29.5169 45.5092V40.296C29.5169 39.6505 29.9779 39.1272 30.5466 39.1272Z" fill="black"/>
<path fill-rule="evenodd" clip-rule="evenodd" d="M20.9364 39.1272C21.5051 39.1272 21.9661 39.6505 21.9661 40.296V45.5092C21.9661 46.1547 21.5051 46.678 20.9364 46.678C20.3678 46.678 19.9068 46.1547 19.9068 45.5092V40.296C19.9068 39.6505 20.3678 39.1272 20.9364 39.1272Z" fill="black"/>
<path fill-rule="evenodd" clip-rule="evenodd" d="M11.3263 39.1272C11.8949 39.1272 12.3559 39.6505 12.3559 40.296V45.5092C12.3559 46.1547 11.8949 46.678 11.3263 46.678C10.7576 46.678 10.2966 46.1547 10.2966 45.5092V40.296C10.2966 39.6505 10.7576 39.1272 11.3263 39.1272Z" fill="black"/>
<path fill-rule="evenodd" clip-rule="evenodd" d="M52.1695 13.7288C52.1695 12.9706 52.709 12.356 53.3745 12.356H59.2018C59.8673 12.356 60.4068 12.9706 60.4068 13.7288C60.4068 14.4871 59.8673 15.1017 59.2018 15.1017H53.3745C52.709 15.1017 52.1695 14.4871 52.1695 13.7288Z" fill="black"/>
<path fill-rule="evenodd" clip-rule="evenodd" d="M64.5254 9.26697C64.5254 8.6983 65.0705 8.2373 65.7429 8.2373H71.5452C72.2176 8.2373 72.7627 8.6983 72.7627 9.26697C72.7627 9.83563 72.2176 10.2966 71.5452 10.2966H65.7429C65.0705 10.2966 64.5254 9.83563 64.5254 9.26697Z" fill="black"/>
</svg>
