<svg width="72" height="72" viewBox="0 0 72 72" fill="none" xmlns="http://www.w3.org/2000/svg">
<path d="M59.625 25.875H12.375C11.1324 25.875 10.125 26.8824 10.125 28.125V57.375C10.125 58.6176 11.1324 59.625 12.375 59.625H59.625C60.8676 59.625 61.875 58.6176 61.875 57.375V28.125C61.875 26.8824 60.8676 25.875 59.625 25.875Z" fill="#C2DFF6"/>
<path d="M25.875 51.75H29.25V56.25H25.875V51.75Z" fill="#FF5023"/>
<path d="M16.3125 59.625L15.75 61.875L16.875 69.75H6.75V64.125L3.375 59.625V50.625L6.75 45L10.125 42.75V54H11.25L14.31 50.94C14.7157 50.5361 15.2483 50.2845 15.818 50.2278C16.3876 50.1711 16.9594 50.3127 17.4367 50.6287C17.9141 50.9448 18.2677 51.4158 18.438 51.9624C18.6083 52.509 18.5847 53.0975 18.3712 53.6287L16.875 57.375L16.3125 59.625Z" fill="#FFDAAA"/>
<path d="M32.625 49.5H36V56.25H32.625V49.5Z" fill="#FF5023"/>
<path d="M39.375 47.25H42.75V56.25H39.375V47.25Z" fill="#FF5023"/>
<path d="M59.625 46.125C59.6268 45.5288 59.8644 44.9575 60.286 44.536C60.7075 44.1144 61.2788 43.8768 61.875 43.875C62.4704 43.8794 63.0401 44.1179 63.4611 44.5389C63.8821 44.9599 64.1206 45.5296 64.125 46.125V47.25C64.1294 46.6546 64.3679 46.0849 64.7889 45.6639C65.2099 45.2429 65.7796 45.0044 66.375 45C66.9712 45.0018 67.5424 45.2394 67.964 45.661C68.3856 46.0825 68.6232 46.6538 68.625 47.25V60.75L65.25 65.25V69.75H50.625V64.125L47.25 59.625V50.625L50.625 47.25V38.25C50.6268 37.6538 50.8644 37.0825 51.286 36.661C51.7075 36.2394 52.2788 36.0018 52.875 36C53.4704 36.0044 54.0401 36.2429 54.4611 36.6639C54.8821 37.0849 55.1206 37.6546 55.125 38.25V46.125C55.1268 45.5288 55.3644 44.9575 55.786 44.536C56.2075 44.1144 56.7788 43.8768 57.375 43.875C57.9704 43.8794 58.5401 44.1179 58.9611 44.5389C59.3821 44.9599 59.6206 45.5296 59.625 46.125Z" fill="#FFDAAA"/>
<path d="M36 31.5L45 42.75H27L32.7375 35.5725L36 31.5Z" fill="#B39A7C"/>
<path d="M43.875 13.5H47.25C47.25 15.5886 46.4203 17.5916 44.9435 19.0685C43.4666 20.5453 41.4636 21.375 39.375 21.375H36C36 19.2864 36.8297 17.2834 38.3065 15.8065C39.7834 14.3297 41.7864 13.5 43.875 13.5Z" fill="#64C37D"/>
<path d="M36 25.875H32.625C30.5364 25.875 28.5334 25.0453 27.0565 23.5685C25.5797 22.0916 24.75 20.0886 24.75 18H28.125C30.2136 18 32.2166 18.8297 33.6935 20.3065C35.1703 21.7834 36 23.7864 36 25.875Z" fill="#91DC5A"/>
<path d="M36 14.625H32.625C30.5364 14.625 28.5334 13.7953 27.0565 12.3185C25.5797 10.8416 24.75 8.83858 24.75 6.75H28.125C30.2136 6.75 32.2166 7.57969 33.6935 9.05653C35.1703 10.5334 36 12.5364 36 14.625Z" fill="#91DC5A"/>
<path d="M43.875 3.375H47.25C47.25 5.46358 46.4203 7.46662 44.9435 8.94347C43.4666 10.4203 41.4636 11.25 39.375 11.25H36C36 9.16142 36.8297 7.15838 38.3065 5.68153C39.7834 4.20469 41.7864 3.375 43.875 3.375Z" fill="#64C37D"/>
<path d="M12.375 22.5V12.375H9L14.625 6.75L20.25 12.375H16.875V22.5H12.375Z" fill="#FFDA44"/>
<path d="M56.25 19.125V9H52.875L58.5 3.375L64.125 9H60.75V19.125H56.25Z" fill="#FFDA44"/>
<path d="M66.375 43.875C65.7938 43.8772 65.2234 44.0324 64.7213 44.325C64.315 43.6898 63.7097 43.2072 63 42.9525V28.125C62.9974 27.2307 62.6409 26.3738 62.0086 25.7415C61.3762 25.1091 60.5193 24.7527 59.625 24.75H37.125V22.5H39.375C41.761 22.4967 44.0482 21.5475 45.7354 19.8603C47.4225 18.1732 48.3717 15.8859 48.375 13.5C48.375 13.2016 48.2565 12.9155 48.0455 12.7045C47.8345 12.4935 47.5484 12.375 47.25 12.375H43.875C42.596 12.3761 41.332 12.6508 40.1678 13.1805C39.0036 13.7102 37.9662 14.4827 37.125 15.4462V12.375H39.375C41.761 12.3717 44.0482 11.4225 45.7354 9.73534C47.4225 8.04823 48.3717 5.76094 48.375 3.375C48.375 3.07663 48.2565 2.79048 48.0455 2.5795C47.8345 2.36853 47.5484 2.25 47.25 2.25H43.875C41.8764 2.25341 39.9358 2.92197 38.3592 4.15026C36.7826 5.37856 35.6597 7.09669 35.1675 9.03375C34.3255 7.97266 33.2549 7.11512 32.0356 6.52494C30.8163 5.93477 29.4796 5.62716 28.125 5.625H24.75C24.4517 5.625 24.1655 5.74353 23.9545 5.9545C23.7435 6.16548 23.625 6.45163 23.625 6.75C23.6283 9.13594 24.5776 11.4232 26.2647 13.1103C27.9518 14.7975 30.2391 15.7467 32.625 15.75H34.875V19.9462C34.0339 18.9827 32.9964 18.2102 31.8322 17.6805C30.6681 17.1508 29.4041 16.8761 28.125 16.875H24.75C24.4517 16.875 24.1655 16.9935 23.9545 17.2045C23.7435 17.4155 23.625 17.7016 23.625 18C23.6262 19.279 23.9008 20.543 24.4305 21.7072C24.9602 22.8714 25.7327 23.9089 26.6963 24.75H12.375C11.4807 24.7527 10.6238 25.1091 9.99148 25.7415C9.35912 26.3738 9.00269 27.2307 9.00002 28.125V42.1425L6.13127 44.0662C5.9881 44.1569 5.86855 44.2803 5.78252 44.4262L2.40752 50.0512C2.30448 50.2249 2.25008 50.4231 2.25002 50.625V59.625C2.24869 59.8686 2.32778 60.1059 2.47502 60.3L5.62502 64.4962V69.75H7.87502V64.125C7.87634 63.8814 7.79725 63.6441 7.65002 63.45L4.50002 59.2537V50.94L7.58252 45.7987L9.00002 44.8537V52.875H7.87502V55.125H11.25C11.5483 55.1228 11.8342 55.006 12.0488 54.7987L15.1088 51.7387C15.3306 51.5195 15.621 51.383 15.9314 51.3521C16.2418 51.3212 16.5534 51.3977 16.8141 51.5689C17.0749 51.7401 17.269 51.9956 17.364 52.2927C17.4591 52.5898 17.4493 52.9105 17.3363 53.2012L15.8288 56.9587C15.8072 57.0052 15.792 57.0544 15.7838 57.105L14.6588 61.605C14.623 61.7446 14.6153 61.8899 14.6363 62.0325L15.7613 69.9075L17.9888 69.5925L16.8975 61.9312L17.19 60.75H46.6875L49.5 64.4962V69.75H51.75V64.125C51.7513 63.8814 51.6723 63.6441 51.525 63.45L48.375 59.2537V51.0862L49.5 49.9612V54H51.75V38.25C51.75 37.9516 51.8685 37.6655 52.0795 37.4545C52.2905 37.2435 52.5767 37.125 52.875 37.125C53.1734 37.125 53.4595 37.2435 53.6705 37.4545C53.8815 37.6655 54 37.9516 54 38.25V54H56.25V46.125C56.25 45.8266 56.3685 45.5405 56.5795 45.3295C56.7905 45.1185 57.0767 45 57.375 45C57.6734 45 57.9595 45.1185 58.1705 45.3295C58.3815 45.5405 58.5 45.8266 58.5 46.125V54H60.75V46.125C60.75 45.8266 60.8685 45.5405 61.0795 45.3295C61.2905 45.1185 61.5767 45 61.875 45C62.1734 45 62.4595 45.1185 62.6705 45.3295C62.8815 45.5405 63 45.8266 63 46.125V54H65.25V47.25C65.25 46.9516 65.3685 46.6655 65.5795 46.4545C65.7905 46.2435 66.0767 46.125 66.375 46.125C66.6734 46.125 66.9595 46.2435 67.1705 46.4545C67.3815 46.6655 67.5 46.9516 67.5 47.25V60.3787L64.35 64.575C64.2028 64.7691 64.1237 65.0064 64.125 65.25V69.75H66.375V65.6212L69.525 61.425C69.6723 61.2309 69.7513 60.9936 69.75 60.75V47.25C69.7474 46.3557 69.3909 45.4988 68.7586 44.8665C68.1262 44.2341 67.2693 43.8777 66.375 43.875ZM43.875 14.625H46.035C45.7655 16.1969 44.9495 17.6232 43.731 18.6523C42.5126 19.6814 40.9699 20.2472 39.375 20.25H37.215C37.4846 18.6781 38.3005 17.2518 39.519 16.2227C40.7374 15.1936 42.2801 14.6278 43.875 14.625ZM43.875 4.5H46.035C45.7655 6.07194 44.9495 7.49822 43.731 8.52732C42.5126 9.55641 40.9699 10.1222 39.375 10.125H37.215C37.4846 8.55306 38.3005 7.12678 39.519 6.09768C40.7374 5.06859 42.2801 4.50276 43.875 4.5ZM32.625 13.5C31.0301 13.4972 29.4874 12.9314 28.269 11.9023C27.0505 10.8732 26.2346 9.44694 25.965 7.875H28.125C29.7199 7.87776 31.2626 8.44358 32.481 9.47268C33.6995 10.5018 34.5155 11.9281 34.785 13.5H32.625ZM36 33.3L42.66 41.625H29.34L32.7713 37.3387L35.145 40.1062L36.855 38.6437L34.2 35.55L36 33.3ZM25.965 19.125H28.125C29.7199 19.1278 31.2626 19.6936 32.481 20.7227C33.6995 21.7518 34.5155 23.1781 34.785 24.75H32.625C31.0301 24.7472 29.4874 24.1814 28.269 23.1523C27.0505 22.1232 26.2346 20.6969 25.965 19.125ZM60.75 42.9525C60.3366 43.1061 59.9551 43.3349 59.625 43.6275C59.0104 43.0651 58.2081 42.7522 57.375 42.75C56.9912 42.753 56.6108 42.8215 56.25 42.9525V38.25C56.25 37.3549 55.8944 36.4964 55.2615 35.8635C54.6286 35.2306 53.7701 34.875 52.875 34.875C51.9799 34.875 51.1215 35.2306 50.4885 35.8635C49.8556 36.4964 49.5 37.3549 49.5 38.25V46.7887L46.4513 49.8262C46.2441 50.0408 46.1272 50.3267 46.125 50.625V58.5H17.7525L17.9438 57.7237L19.4175 54.045C19.7277 53.2726 19.7617 52.4167 19.5137 51.6222C19.2658 50.8276 18.7511 50.1429 18.0567 49.684C17.3623 49.225 16.5308 49.0198 15.7026 49.1032C14.8744 49.1865 14.1003 49.5532 13.5113 50.1412L11.25 52.4137V28.125C11.25 27.8266 11.3685 27.5405 11.5795 27.3295C11.7905 27.1185 12.0766 27 12.375 27H34.875V31.1062L32.715 33.8062L30.105 30.7687C29.9989 30.6459 29.8676 30.5472 29.7202 30.4793C29.5727 30.4114 29.4124 30.3758 29.25 30.375H14.625V32.625H28.7325L31.2863 35.595L26.46 41.625H24.75V43.875H47.25V41.625H45.54L37.125 31.1062V27H59.625C59.9234 27 60.2095 27.1185 60.4205 27.3295C60.6315 27.5405 60.75 27.8266 60.75 28.125V42.9525Z" fill="black"/>
<path d="M14.625 34.875H19.125V37.125H14.625V34.875Z" fill="black"/>
<path d="M14.625 39.375H21.375V41.625H14.625V39.375Z" fill="black"/>
<path d="M43.875 55.125V47.25C43.875 46.9516 43.7565 46.6655 43.5455 46.4545C43.3345 46.2435 43.0484 46.125 42.75 46.125H39.375C39.0766 46.125 38.7905 46.2435 38.5795 46.4545C38.3685 46.6655 38.25 46.9516 38.25 47.25V55.125H37.125V49.5C37.125 49.2016 37.0065 48.9155 36.7955 48.7045C36.5845 48.4935 36.2984 48.375 36 48.375H32.625C32.3266 48.375 32.0405 48.4935 31.8295 48.7045C31.6185 48.9155 31.5 49.2016 31.5 49.5V55.125H30.375V51.75C30.375 51.4516 30.2565 51.1655 30.0455 50.9545C29.8345 50.7435 29.5484 50.625 29.25 50.625H25.875C25.5766 50.625 25.2905 50.7435 25.0795 50.9545C24.8685 51.1655 24.75 51.4516 24.75 51.75V55.125H23.625V57.375H45V55.125H43.875ZM28.125 55.125H27V52.875H28.125V55.125ZM34.875 55.125H33.75V50.625H34.875V55.125ZM41.625 55.125H40.5V48.375H41.625V55.125Z" fill="black"/>
<path d="M55.125 14.625H57.375V16.875H55.125V14.625Z" fill="black"/>
<path d="M52.875 10.125H55.125V12.375H57.375V9.00001C57.375 8.70164 57.2565 8.41549 57.0455 8.20451C56.8345 7.99353 56.5484 7.875 56.25 7.875H55.5908L58.5 4.96575L61.4093 7.875H60.75C60.4516 7.875 60.1655 7.99353 59.9545 8.20451C59.7435 8.41549 59.625 8.70164 59.625 9.00001V19.125H61.875V10.125H64.125C64.3475 10.125 64.5649 10.059 64.7499 9.93533C64.9349 9.81171 65.079 9.63603 65.1641 9.43049C65.2493 9.22495 65.2715 8.99879 65.2282 8.78059C65.1848 8.5624 65.0777 8.36196 64.9204 8.20463L59.2954 2.57963C59.0844 2.36872 58.7983 2.25024 58.5 2.25024C58.2017 2.25024 57.9156 2.36872 57.7046 2.57963L52.0796 8.20463C51.9223 8.36196 51.8152 8.5624 51.7718 8.78059C51.7285 8.99879 51.7507 9.22495 51.8359 9.43049C51.921 9.63603 52.0652 9.81171 52.2501 9.93533C52.4351 10.059 52.6525 10.125 52.875 10.125Z" fill="black"/>
<path d="M15.75 18H18V20.25H15.75V18Z" fill="black"/>
<path d="M9 13.5H11.25V22.5H13.5V12.375C13.5 12.0766 13.3815 11.7905 13.1705 11.5795C12.9595 11.3685 12.6734 11.25 12.375 11.25H11.7158L14.625 8.34075L17.5343 11.25H16.875C16.5766 11.25 16.2905 11.3685 16.0795 11.5795C15.8685 11.7905 15.75 12.0766 15.75 12.375V15.75H18V13.5H20.25C20.4725 13.5 20.6899 13.434 20.8749 13.3103C21.0599 13.1867 21.204 13.011 21.2891 12.8055C21.3743 12.6 21.3965 12.3738 21.3532 12.1556C21.3098 11.9374 21.2027 11.737 21.0454 11.5796L15.4204 5.95463C15.2094 5.74372 14.9233 5.62524 14.625 5.62524C14.3267 5.62524 14.0406 5.74372 13.8296 5.95463L8.20463 11.5796C8.04734 11.737 7.94024 11.9374 7.89685 12.1556C7.85346 12.3738 7.87574 12.6 7.96087 12.8055C8.046 13.011 8.19015 13.1867 8.37511 13.3103C8.56007 13.434 8.77754 13.5 9 13.5Z" fill="black"/>
</svg>
