<svg width="70" height="70" viewBox="0 0 70 70" fill="none" xmlns="http://www.w3.org/2000/svg">
<path d="M5.46875 37.1875V42.5928C5.46821 43.2898 5.63419 43.9768 5.95285 44.5966C6.27152 45.2164 6.73366 45.7511 7.30078 46.1563L13.125 50.3125V42.6562L5.46875 37.1875Z" fill="#F8D246"/>
<path d="M5.46875 29.5312V37.1875L13.125 42.6562V35L5.46875 29.5312Z" fill="#FFE664"/>
<path d="M5.46875 21.875V29.5312L13.125 35V27.3438L5.46875 21.875Z" fill="#F8D246"/>
<path d="M5.46875 14.2188V21.875L13.125 27.3438V19.6875L5.46875 14.2188Z" fill="#FFE664"/>
<path d="M5.46875 6.5625V14.2188L13.125 19.6875V12.0312L5.46875 6.5625Z" fill="#F8D246"/>
<path d="M20.7812 37.1875V42.5928C20.7818 43.2898 20.6158 43.9768 20.2971 44.5966C19.9785 45.2164 19.5163 45.7511 18.9492 46.1563L13.125 50.3125V42.6562L20.7812 37.1875Z" fill="#FFE664"/>
<path d="M20.7812 29.5312V37.1875L13.125 42.6562V35L20.7812 29.5312Z" fill="#F8D246"/>
<path d="M20.7812 21.875V29.5312L13.125 35V27.3438L20.7812 21.875Z" fill="#FFE664"/>
<path d="M20.7812 14.2188V21.875L13.125 27.3438V19.6875L20.7812 14.2188Z" fill="#F8D246"/>
<path d="M20.7812 6.5625V14.2188L13.125 19.6875V12.0312L20.7812 6.5625Z" fill="#FFE664"/>
<path d="M27.3438 37.1875V42.5928C27.3432 43.2898 27.5092 43.9768 27.8279 44.5966C28.1465 45.2164 28.6087 45.7511 29.1758 46.1563L35 50.3125V42.6562L27.3438 37.1875Z" fill="#F8D246"/>
<path d="M27.3438 29.5312V37.1875L35 42.6562V35L27.3438 29.5312Z" fill="#FFE664"/>
<path d="M27.3438 21.875V29.5312L35 35V27.3438L27.3438 21.875Z" fill="#F8D246"/>
<path d="M27.3438 14.2188V21.875L35 27.3438V19.6875L27.3438 14.2188Z" fill="#FFE664"/>
<path d="M27.3438 6.5625V14.2188L35 19.6875V12.0312L27.3438 6.5625Z" fill="#F8D246"/>
<path d="M42.6562 37.1875V42.5928C42.6568 43.2898 42.4908 43.9768 42.1721 44.5966C41.8535 45.2164 41.3913 45.7511 40.8242 46.1563L35 50.3125V42.6562L42.6562 37.1875Z" fill="#FFE664"/>
<path d="M42.6562 29.5312V37.1875L35 42.6562V35L42.6562 29.5312Z" fill="#F8D246"/>
<path d="M42.6562 21.875V29.5312L35 35V27.3438L42.6562 21.875Z" fill="#FFE664"/>
<path d="M42.6562 14.2188V21.875L35 27.3438V19.6875L42.6562 14.2188Z" fill="#F8D246"/>
<path d="M42.6562 6.5625V14.2188L35 19.6875V12.0312L42.6562 6.5625Z" fill="#FFE664"/>
<path d="M49.2188 37.1875V42.5928C49.2182 43.2898 49.3842 43.9768 49.7029 44.5966C50.0215 45.2164 50.4837 45.7511 51.0508 46.1563L56.875 50.3125V42.6562L49.2188 37.1875Z" fill="#F8D246"/>
<path d="M49.2188 29.5312V37.1875L56.875 42.6562V35L49.2188 29.5312Z" fill="#FFE664"/>
<path d="M49.2188 21.875V29.5312L56.875 35V27.3438L49.2188 21.875Z" fill="#F8D246"/>
<path d="M49.2188 14.2188V21.875L56.875 27.3438V19.6875L49.2188 14.2188Z" fill="#FFE664"/>
<path d="M49.2188 6.5625V14.2188L56.875 19.6875V12.0312L49.2188 6.5625Z" fill="#F8D246"/>
<path d="M64.5312 37.1875V42.5928C64.5318 43.2898 64.3658 43.9768 64.0471 44.5966C63.7285 45.2164 63.2663 45.7511 62.6992 46.1563L56.875 50.3125V42.6562L64.5312 37.1875Z" fill="#FFE664"/>
<path d="M64.5312 29.5312V37.1875L56.875 42.6562V35L64.5312 29.5312Z" fill="#F8D246"/>
<path d="M64.5312 21.875V29.5312L56.875 35V27.3438L64.5312 21.875Z" fill="#FFE664"/>
<path d="M64.5312 14.2188V21.875L56.875 27.3438V19.6875L64.5312 14.2188Z" fill="#F8D246"/>
<path d="M64.5312 6.5625V14.2188L56.875 19.6875V12.0312L64.5312 6.5625Z" fill="#FFE664"/>
<path d="M2.1875 56.875H67.8125V67.8125H2.1875V56.875Z" fill="#C57257"/>
<path d="M5.46875 60.1562H67.8125V67.8125H5.46875V60.1562Z" fill="#B95F41"/>
<path d="M67.8125 55.7812H57.9688V50.8747L63.3358 47.0466C64.0437 46.5392 64.6206 45.8704 65.0187 45.0957C65.4168 44.3211 65.6246 43.4627 65.625 42.5917V2.1875C65.625 1.89742 65.5098 1.61922 65.3046 1.4141C65.0995 1.20898 64.8213 1.09375 64.5312 1.09375C64.2412 1.09375 63.963 1.20898 63.7579 1.4141C63.5527 1.61922 63.4375 1.89742 63.4375 2.1875V6.00031L57.9688 9.90609V4.375C57.9688 4.08492 57.8535 3.80672 57.6484 3.6016C57.4433 3.39648 57.1651 3.28125 56.875 3.28125C56.5849 3.28125 56.3067 3.39648 56.1016 3.6016C55.8965 3.80672 55.7812 4.08492 55.7812 4.375V9.90609L50.3125 6.00031V2.1875C50.3125 1.89742 50.1973 1.61922 49.9921 1.4141C49.787 1.20898 49.5088 1.09375 49.2188 1.09375C48.9287 1.09375 48.6505 1.20898 48.4454 1.4141C48.2402 1.61922 48.125 1.89742 48.125 2.1875V42.5917C48.126 43.4621 48.3343 44.3197 48.7326 45.0936C49.1308 45.8675 49.7077 46.5355 50.4153 47.0422L55.7812 50.8747V55.7812H36.0938V50.8747L41.4608 47.0466C42.1687 46.5392 42.7456 45.8704 43.1437 45.0957C43.5418 44.3211 43.7496 43.4627 43.75 42.5917V2.1875C43.75 1.89742 43.6348 1.61922 43.4296 1.4141C43.2245 1.20898 42.9463 1.09375 42.6562 1.09375C42.3662 1.09375 42.088 1.20898 41.8829 1.4141C41.6777 1.61922 41.5625 1.89742 41.5625 2.1875V6.00031L36.0938 9.90609V4.375C36.0938 4.08492 35.9785 3.80672 35.7734 3.6016C35.5683 3.39648 35.2901 3.28125 35 3.28125C34.7099 3.28125 34.4317 3.39648 34.2266 3.6016C34.0215 3.80672 33.9062 4.08492 33.9062 4.375V9.90609L28.4375 6.00031V2.1875C28.4375 1.89742 28.3223 1.61922 28.1171 1.4141C27.912 1.20898 27.6338 1.09375 27.3438 1.09375C27.0537 1.09375 26.7755 1.20898 26.5704 1.4141C26.3652 1.61922 26.25 1.89742 26.25 2.1875V42.5917C26.251 43.4621 26.4593 44.3197 26.8576 45.0936C27.2558 45.8675 27.8327 46.5355 28.5403 47.0422L33.9062 50.8747V55.7812H14.2188V50.8747L19.5858 47.0466C20.2937 46.5392 20.8706 45.8704 21.2687 45.0957C21.6668 44.3211 21.8746 43.4627 21.875 42.5917V2.1875C21.875 1.89742 21.7598 1.61922 21.5546 1.4141C21.3495 1.20898 21.0713 1.09375 20.7812 1.09375C20.4912 1.09375 20.213 1.20898 20.0079 1.4141C19.8027 1.61922 19.6875 1.89742 19.6875 2.1875V6.00031L14.2188 9.90609V4.375C14.2188 4.08492 14.1035 3.80672 13.8984 3.6016C13.6933 3.39648 13.4151 3.28125 13.125 3.28125C12.8349 3.28125 12.5567 3.39648 12.3516 3.6016C12.1465 3.80672 12.0312 4.08492 12.0312 4.375V9.90609L6.5625 6.00031V2.1875C6.5625 1.89742 6.44727 1.61922 6.24215 1.4141C6.03703 1.20898 5.75883 1.09375 5.46875 1.09375C5.17867 1.09375 4.90047 1.20898 4.69535 1.4141C4.49023 1.61922 4.375 1.89742 4.375 2.1875V42.5917C4.37604 43.4621 4.58431 44.3197 4.98257 45.0936C5.38084 45.8675 5.95766 46.5355 6.66531 47.0422L12.0312 50.8747V55.7812H2.1875C1.89742 55.7812 1.61922 55.8965 1.4141 56.1016C1.20898 56.3067 1.09375 56.5849 1.09375 56.875V67.8125C1.09375 68.1026 1.20898 68.3808 1.4141 68.5859C1.61922 68.791 1.89742 68.9062 2.1875 68.9062H67.8125C68.1026 68.9062 68.3808 68.791 68.5859 68.5859C68.791 68.3808 68.9062 68.1026 68.9062 67.8125V56.875C68.9062 56.5849 68.791 56.3067 68.5859 56.1016C68.3808 55.8965 68.1026 55.7812 67.8125 55.7812ZM57.9688 12.5945L63.4375 8.68766V13.6555L57.9688 17.5623V12.5945ZM57.9688 20.2508L63.4375 16.3439V21.3117L57.9688 25.2186V20.2508ZM57.9688 27.907L63.4375 24.0002V28.968L57.9688 32.8748V27.907ZM57.9688 35.5633L63.4375 31.6564V36.6242L57.9688 40.5311V35.5633ZM57.9688 43.2195L63.4375 39.3127V42.5939C63.4368 43.1162 63.3118 43.6307 63.073 44.0952C62.8341 44.5596 62.4882 44.9605 62.0638 45.2648L57.9688 48.1873V43.2195ZM36.0938 12.5945L41.5625 8.68766V13.6555L36.0938 17.5623V12.5945ZM36.0938 20.2508L41.5625 16.3439V21.3117L36.0938 25.2186V20.2508ZM36.0938 27.907L41.5625 24.0002V28.968L36.0938 32.8748V27.907ZM36.0938 35.5633L41.5625 31.6564V36.6242L36.0938 40.5311V35.5633ZM36.0938 43.2195L41.5625 39.3127V42.5939C41.5618 43.1162 41.4368 43.6307 41.198 44.0952C40.9591 44.5596 40.6132 44.9605 40.1888 45.2648L36.0938 48.1873V43.2195ZM14.2188 12.5945L19.6875 8.68766V13.6555L14.2188 17.5623V12.5945ZM14.2188 20.2508L19.6875 16.3439V21.3117L14.2188 25.2186V20.2508ZM14.2188 27.907L19.6875 24.0002V28.968L14.2188 32.8748V27.907ZM14.2188 35.5633L19.6875 31.6564V36.6242L14.2188 40.5311V35.5633ZM14.2188 43.2195L19.6875 39.3127V42.5939C19.6868 43.1162 19.5618 43.6307 19.323 44.0952C19.0841 44.5596 18.7382 44.9605 18.3137 45.2648L14.2188 48.1873V43.2195ZM50.3125 8.68766L55.7812 12.5945V17.5623L50.3125 13.6555V8.68766ZM50.3125 16.3439L55.7812 20.2508V25.2186L50.3125 21.3117V16.3439ZM50.3125 24.0002L55.7812 27.907V32.8748L50.3125 28.968V24.0002ZM50.3125 31.6564L55.7812 35.5633V40.5311L50.3125 36.6242V31.6564ZM51.6862 45.2627C51.2618 44.9583 50.9159 44.5574 50.677 44.093C50.4382 43.6286 50.3132 43.114 50.3125 42.5917V39.3105L55.7812 43.2173V48.1852L51.6862 45.2627ZM28.4375 8.68766L33.9062 12.5945V17.5623L28.4375 13.6555V8.68766ZM28.4375 16.3439L33.9062 20.2508V25.2186L28.4375 21.3117V16.3439ZM28.4375 24.0002L33.9062 27.907V32.8748L28.4375 28.968V24.0002ZM28.4375 31.6564L33.9062 35.5633V40.5311L28.4375 36.6242V31.6564ZM29.8113 45.2627C29.3868 44.9583 29.0409 44.5574 28.802 44.093C28.5632 43.6286 28.4382 43.114 28.4375 42.5917V39.3105L33.9062 43.2173V48.1852L29.8113 45.2627ZM6.5625 8.68766L12.0312 12.5945V17.5623L6.5625 13.6555V8.68766ZM6.5625 16.3439L12.0312 20.2508V25.2186L6.5625 21.3117V16.3439ZM6.5625 24.0002L12.0312 27.907V32.8748L6.5625 28.968V24.0002ZM6.5625 31.6564L12.0312 35.5633V40.5311L6.5625 36.6242V31.6564ZM7.93625 45.2627C7.51183 44.9583 7.16591 44.5574 6.92704 44.093C6.68817 43.6286 6.56322 43.114 6.5625 42.5917V39.3105L12.0312 43.2173V48.1852L7.93625 45.2627ZM66.7188 66.7188H3.28125V57.9688H66.7188V66.7188Z" fill="black"/>
<path d="M35 62.3438C35.6041 62.3438 36.0938 61.8541 36.0938 61.25C36.0938 60.6459 35.6041 60.1562 35 60.1562C34.3959 60.1562 33.9062 60.6459 33.9062 61.25C33.9062 61.8541 34.3959 62.3438 35 62.3438Z" fill="black"/>
<path d="M43.75 64.5312C44.3541 64.5312 44.8438 64.0416 44.8438 63.4375C44.8438 62.8334 44.3541 62.3438 43.75 62.3438C43.1459 62.3438 42.6562 62.8334 42.6562 63.4375C42.6562 64.0416 43.1459 64.5312 43.75 64.5312Z" fill="black"/>
<path d="M52.5 62.3438C53.1041 62.3438 53.5938 61.8541 53.5938 61.25C53.5938 60.6459 53.1041 60.1562 52.5 60.1562C51.8959 60.1562 51.4062 60.6459 51.4062 61.25C51.4062 61.8541 51.8959 62.3438 52.5 62.3438Z" fill="black"/>
<path d="M61.25 64.5312C61.8541 64.5312 62.3438 64.0416 62.3438 63.4375C62.3438 62.8334 61.8541 62.3438 61.25 62.3438C60.6459 62.3438 60.1562 62.8334 60.1562 63.4375C60.1562 64.0416 60.6459 64.5312 61.25 64.5312Z" fill="black"/>
<path d="M26.25 64.5312C26.8541 64.5312 27.3438 64.0416 27.3438 63.4375C27.3438 62.8334 26.8541 62.3438 26.25 62.3438C25.6459 62.3438 25.1562 62.8334 25.1562 63.4375C25.1562 64.0416 25.6459 64.5312 26.25 64.5312Z" fill="black"/>
<path d="M17.5 62.3438C18.1041 62.3438 18.5938 61.8541 18.5938 61.25C18.5938 60.6459 18.1041 60.1562 17.5 60.1562C16.8959 60.1562 16.4062 60.6459 16.4062 61.25C16.4062 61.8541 16.8959 62.3438 17.5 62.3438Z" fill="black"/>
<path d="M8.75 64.5312C9.35406 64.5312 9.84375 64.0416 9.84375 63.4375C9.84375 62.8334 9.35406 62.3438 8.75 62.3438C8.14594 62.3438 7.65625 62.8334 7.65625 63.4375C7.65625 64.0416 8.14594 64.5312 8.75 64.5312Z" fill="black"/>
</svg>
